# xmcd
# 
# Track frame offsets:
#     150
#     10948
#     27646
#     41285
# 
# Disc length: 764
# 
# Revision: 0
# Processed by: cddbd v1.5.2PL0 Copyright (c) Steve Scherf et al.
# Submitted via: fre:ac v1.0.17
# 
DISCID=2702fa04
DTITLE=The Fauves - Medium Pacer
DYEAR=2000
DGENRE=
TTITLE0=Medium Pacer
TTITLE1=It's Been A Long Time Since I Felt That Thrill
TTITLE2=Glomesh
TTITLE3=Get Into Retail
EXTD=
EXTT0=
EXTT1=
EXTT2=
EXTT3=
PLAYORDER=
